# xmcd
#
# Track frame offsets:
#	150
#	20953
#	44173
#	67700
#	87972
#	119932
#	138701
#	158856
#	189699
#	210073
#	232146
#
# Disc length: 3636 seconds
#
# Revision: 1
# Processed by: cddbd v1.5.2PL0 Copyright (c) Steve Scherf et al.
# Submitted via: audiograbber 1.83.01
#
DISCID=a60e320b
DTITLE=One Bloke One Mandolin - Fair Travels and Fine Times
DYEAR=1900
DGENRE=
TTITLE0=Sweet Dark Wave 
TTITLE1=The Bosun 
TTITLE2=A Temporary Boatman 
TTITLE3=I'll Just Call You Clint 
TTITLE4=The Lure Of The Road 
TTITLE5=I Don't Drink Like These Days Like I Used To 
TTITLE6=One Night In Old Detroit 
TTITLE7=Why?
TTITLE8=(Still)Too Poor For Trailer Trash 
TTITLE9=The Arctic Convoy 
TTITLE10=Fair Travels and Fine Times 
EXTD=
EXTT0=
EXTT1=
EXTT2=
EXTT3=
EXTT4=
EXTT5=
EXTT6=
EXTT7=
EXTT8=
EXTT9=
EXTT10=
PLAYORDER=
